<svg width="100" height="100" viewBox="0 0 100 100" fill="none" xmlns="http://www.w3.org/2000/svg">
<path d="M54.7456 6.98008C54.7456 8.07364 53.859 8.96015 52.7655 8.96015C51.6719 8.96015 50.7854 8.07364 50.7854 6.98008C50.7854 5.88651 51.6719 5 52.7655 5C53.859 5 54.7456 5.88651 54.7456 6.98008Z" fill="black"/>
<path d="M46.3356 7.22336C46.3356 8.31693 45.4491 9.20344 44.3556 9.20344C43.262 9.20344 42.3755 8.31693 42.3755 7.22336C42.3755 6.1298 43.262 5.24329 44.3556 5.24329C45.4491 5.24329 46.3356 6.1298 46.3356 7.22336Z" fill="black"/>
<path d="M38.1347 9.1027C38.1347 10.1963 37.2482 11.0828 36.1546 11.0828C35.0611 11.0828 34.1746 10.1963 34.1746 9.1027C34.1746 8.00913 35.0611 7.12262 36.1546 7.12262C37.2482 7.12262 38.1347 8.00913 38.1347 9.1027Z" fill="black"/>
<path d="M63.0415 8.38217C63.0415 9.47574 62.1549 10.3623 61.0614 10.3623C59.9678 10.3623 59.0813 9.47574 59.0813 8.38217C59.0813 7.28861 59.9678 6.4021 61.0614 6.4021C62.1549 6.4021 63.0415 7.28861 63.0415 8.38217Z" fill="black"/>
<path d="M30.4581 12.5458C30.4581 13.6394 29.5716 14.5259 28.478 14.5259C27.3844 14.5259 26.4979 13.6394 26.4979 12.5458C26.4979 11.4522 27.3844 10.5657 28.478 10.5657C29.5716 10.5657 30.4581 11.4522 30.4581 12.5458Z" fill="black"/>
<path d="M23.6005 17.4204C23.6005 18.514 22.714 19.4005 21.6205 19.4005C20.5269 19.4005 19.6404 18.514 19.6404 17.4204C19.6404 16.3269 20.5269 15.4404 21.6205 15.4404C22.714 15.4404 23.6005 16.3269 23.6005 17.4204Z" fill="black"/>
<path d="M17.8259 23.5392C17.8259 24.6328 16.9394 25.5193 15.8458 25.5193C14.7522 25.5193 13.8657 24.6328 13.8657 23.5392C13.8657 22.4457 14.7522 21.5591 15.8458 21.5591C16.9394 21.5591 17.8259 22.4457 17.8259 23.5392Z" fill="black"/>
<path d="M94.348 44.3556C94.348 45.4491 93.4615 46.3356 92.3679 46.3356C91.2743 46.3356 90.3878 45.4491 90.3878 44.3556C90.3878 43.262 91.2743 42.3755 92.3679 42.3755C93.4615 42.3755 94.348 43.262 94.348 44.3556Z" fill="black"/>
<path d="M70.9044 11.3757C70.9044 12.4693 70.0179 13.3558 68.9243 13.3558C67.8307 13.3558 66.9442 12.4693 66.9442 11.3757C66.9442 10.2821 67.8307 9.39563 68.9243 9.39563C70.0179 9.39563 70.9044 10.2821 70.9044 11.3757Z" fill="black"/>
<path d="M78.0322 15.8457C78.0322 16.9393 77.1457 17.8258 76.0521 17.8258C74.9585 17.8258 74.072 16.9393 74.072 15.8457C74.072 14.7522 74.9585 13.8657 76.0521 13.8657C77.1457 13.8657 78.0322 14.7522 78.0322 15.8457Z" fill="black"/>
<path d="M93.1892 61.0614C93.1892 62.1549 92.3027 63.0415 91.2091 63.0415C90.1155 63.0415 89.229 62.1549 89.229 61.0614C89.229 59.9678 90.1155 59.0813 91.2091 59.0813C92.3027 59.0813 93.1892 59.9678 93.1892 61.0614Z" fill="black"/>
<path d="M25.5194 83.7455C25.5194 84.8391 24.6328 85.7256 23.5393 85.7256C22.4457 85.7256 21.5592 84.8391 21.5592 83.7455C21.5592 82.6519 22.4457 81.7654 23.5393 81.7654C24.6328 81.7654 25.5194 82.6519 25.5194 83.7455Z" fill="black"/>
<path d="M92.4687 36.1546C92.4687 37.2482 91.5822 38.1347 90.4886 38.1347C89.3951 38.1347 88.5085 37.2482 88.5085 36.1546C88.5085 35.0611 89.3951 34.1746 90.4886 34.1746C91.5822 34.1746 92.4687 35.0611 92.4687 36.1546Z" fill="black"/>
<path d="M94.5913 52.7655C94.5913 53.8591 93.7048 54.7456 92.6112 54.7456C91.5176 54.7456 90.6311 53.8591 90.6311 52.7655C90.6311 51.672 91.5176 50.7855 92.6112 50.7855C93.7048 50.7855 94.5913 51.672 94.5913 52.7655Z" fill="black"/>
<path d="M90.1956 68.9242C90.1956 70.0178 89.3091 70.9043 88.2156 70.9043C87.122 70.9043 86.2355 70.0178 86.2355 68.9242C86.2355 67.8307 87.122 66.9442 88.2156 66.9442C89.3091 66.9442 90.1956 67.8307 90.1956 68.9242Z" fill="black"/>
<path d="M19.4006 77.9708C19.4006 79.0644 18.5141 79.9509 17.4205 79.9509C16.3269 79.9509 15.4404 79.0644 15.4404 77.9708C15.4404 76.8772 16.3269 75.9907 17.4205 75.9907C18.5141 75.9907 19.4006 76.8772 19.4006 77.9708Z" fill="black"/>
<path d="M32.6472 88.2156C32.6472 89.3091 31.7606 90.1956 30.6671 90.1956C29.5735 90.1956 28.687 89.3091 28.687 88.2156C28.687 87.122 29.5735 86.2355 30.6671 86.2355C31.7606 86.2355 32.6472 87.122 32.6472 88.2156Z" fill="black"/>
<path d="M89.0256 28.4779C89.0256 29.5715 88.1391 30.458 87.0455 30.458C85.9519 30.458 85.0654 29.5715 85.0654 28.4779C85.0654 27.3844 85.9519 26.4979 87.0455 26.4979C88.1391 26.4979 89.0256 27.3844 89.0256 28.4779Z" fill="black"/>
<path d="M11.0828 63.4367C11.0828 64.5303 10.1963 65.4168 9.10276 65.4168C8.00919 65.4168 7.12268 64.5303 7.12268 63.4367C7.12268 62.3431 8.00919 61.4566 9.10276 61.4566C10.1963 61.4566 11.0828 62.3431 11.0828 63.4367Z" fill="black"/>
<path d="M84.1509 21.6205C84.1509 22.714 83.2644 23.6005 82.1709 23.6005C81.0773 23.6005 80.1908 22.714 80.1908 21.6205C80.1908 20.5269 81.0773 19.6404 82.1709 19.6404C83.2644 19.6404 84.1509 20.5269 84.1509 21.6205Z" fill="black"/>
<path d="M85.7257 76.052C85.7257 77.1456 84.8392 78.0321 83.7456 78.0321C82.652 78.0321 81.7655 77.1456 81.7655 76.052C81.7655 74.9585 82.652 74.072 83.7456 74.072C84.8392 74.072 85.7257 74.9585 85.7257 76.052Z" fill="black"/>
<path d="M79.9509 82.1709C79.9509 83.2644 79.0644 84.1509 77.9708 84.1509C76.8772 84.1509 75.9907 83.2644 75.9907 82.1709C75.9907 81.0773 76.8772 80.1908 77.9708 80.1908C79.0644 80.1908 79.9509 81.0773 79.9509 82.1709Z" fill="black"/>
<path d="M14.5259 71.1134C14.5259 72.2069 13.6394 73.0935 12.5459 73.0935C11.4523 73.0935 10.5658 72.2069 10.5658 71.1134C10.5658 70.0198 11.4523 69.1333 12.5459 69.1333C13.6394 69.1333 14.5259 70.0198 14.5259 71.1134Z" fill="black"/>
<path d="M9.20343 55.2357C9.20343 56.3293 8.31692 57.2158 7.22336 57.2158C6.1298 57.2158 5.24329 56.3293 5.24329 55.2357C5.24329 54.1422 6.1298 53.2557 7.22336 53.2557C8.31692 53.2557 9.20343 54.1422 9.20343 55.2357Z" fill="black"/>
<path d="M48.8059 92.6112C48.8059 93.7048 47.9193 94.5913 46.8258 94.5913C45.7322 94.5913 44.8457 93.7048 44.8457 92.6112C44.8457 91.5177 45.7322 90.6312 46.8258 90.6312C47.9193 90.6312 48.8059 91.5177 48.8059 92.6112Z" fill="black"/>
<path d="M57.2158 92.3679C57.2158 93.4615 56.3293 94.348 55.2357 94.348C54.1421 94.348 53.2556 93.4615 53.2556 92.3679C53.2556 91.2743 54.1421 90.3878 55.2357 90.3878C56.3293 90.3878 57.2158 91.2743 57.2158 92.3679Z" fill="black"/>
<path d="M40.5101 91.2091C40.5101 92.3027 39.6236 93.1892 38.53 93.1892C37.4364 93.1892 36.5499 92.3027 36.5499 91.2091C36.5499 90.1156 37.4364 89.2291 38.53 89.2291C39.6236 89.2291 40.5101 90.1156 40.5101 91.2091Z" fill="black"/>
<path d="M8.96015 46.8258C8.96015 47.9193 8.07365 48.8059 6.98008 48.8059C5.88651 48.8059 5 47.9193 5 46.8258C5 45.7322 5.88651 44.8457 6.98008 44.8457C8.07365 44.8457 8.96015 45.7322 8.96015 46.8258Z" fill="black"/>
<path d="M13.3558 30.667C13.3558 31.7606 12.4693 32.6471 11.3757 32.6471C10.2821 32.6471 9.39563 31.7606 9.39563 30.667C9.39563 29.5735 10.2821 28.687 11.3757 28.687C12.4693 28.687 13.3558 29.5735 13.3558 30.667Z" fill="black"/>
<path d="M10.3622 38.5299C10.3622 39.6235 9.47573 40.51 8.38217 40.51C7.28861 40.51 6.4021 39.6235 6.4021 38.5299C6.4021 37.4364 7.28861 36.5499 8.38217 36.5499C9.47573 36.5499 10.3622 37.4364 10.3622 38.5299Z" fill="black"/>
<path d="M73.0935 87.0454C73.0935 88.139 72.2069 89.0255 71.1134 89.0255C70.0198 89.0255 69.1333 88.139 69.1333 87.0454C69.1333 85.9519 70.0198 85.0654 71.1134 85.0654C72.2069 85.0654 73.0935 85.9519 73.0935 87.0454Z" fill="black"/>
<path d="M65.4167 90.4886C65.4167 91.5822 64.5302 92.4687 63.4366 92.4687C62.3431 92.4687 61.4565 91.5822 61.4565 90.4886C61.4565 89.3951 62.3431 88.5085 63.4366 88.5085C64.5302 88.5085 65.4167 89.3951 65.4167 90.4886Z" fill="black"/>
</svg>
